<svg width="24" height="28" viewBox="0 0 24 28" fill="none" xmlns="http://www.w3.org/2000/svg">
<path d="M1.08174 11.1665L10.9984 1.24986C11.2641 0.98428 11.6243 0.835083 12 0.835083C12.3756 0.835083 12.7359 0.98428 13.0016 1.24986L22.9182 11.1665C23.1839 11.4321 23.3332 11.7924 23.3333 12.1681V25.7483C23.3333 26.124 23.1841 26.4843 22.9184 26.75C22.6527 27.0157 22.2924 27.1649 21.9167 27.1649H14.8333V17.2483H9.16666V27.1649H2.08332C1.7076 27.1649 1.34727 27.0157 1.08159 26.75C0.815912 26.4843 0.666656 26.124 0.666656 25.7483V12.1681C0.666737 11.7924 0.816045 11.4321 1.08174 11.1665V11.1665Z" fill="white"/>
</svg>
