<svg width="96" height="54" viewBox="0 0 96 54" fill="none" xmlns="http://www.w3.org/2000/svg">
<path d="M37.0817 24.1665L46.9984 14.2499C47.2641 13.9843 47.6243 13.8351 48 13.8351C48.3756 13.8351 48.7359 13.9843 49.0016 14.2499L58.9182 24.1665C59.1839 24.4321 59.3332 24.7924 59.3333 25.1681V38.7483C59.3333 39.124 59.1841 39.4843 58.9184 39.75C58.6527 40.0157 58.2924 40.1649 57.9167 40.1649H50.8333V30.2483H45.1667V40.1649H38.0833C37.7076 40.1649 37.3473 40.0157 37.0816 39.75C36.8159 39.4843 36.6667 39.124 36.6667 38.7483V25.1681C36.6667 24.7924 36.816 24.4321 37.0817 24.1665Z" fill="white"/>
</svg>
