<svg width="34" height="34" viewBox="0 0 34 34" fill="none" xmlns="http://www.w3.org/2000/svg">
<path d="M25.5 11.0712V21.8195C24.6898 21.3517 23.7478 21.1643 22.8203 21.2865C21.8927 21.4086 21.0313 21.8334 20.3698 22.4949C19.7082 23.1565 19.2835 24.0178 19.1614 24.9454C19.0393 25.873 19.2266 26.8149 19.6944 27.6251C20.1622 28.4354 20.8843 29.0686 21.7487 29.4266C22.613 29.7846 23.5714 29.8474 24.4751 29.6053C25.3788 29.3631 26.1773 28.8295 26.7468 28.0873C27.3163 27.345 27.625 26.4356 27.625 25.5V4.09274C27.6253 3.81997 27.56 3.55113 27.4346 3.30892C27.3091 3.0667 27.1272 2.85823 26.9042 2.70111C26.6813 2.54399 26.4238 2.44283 26.1535 2.40617C25.8832 2.36951 25.608 2.39843 25.3513 2.49049L11.7513 7.34824C11.4216 7.46645 11.1364 7.68361 10.9348 7.97002C10.7332 8.25643 10.625 8.59812 10.625 8.94837V23.9424C9.81485 23.4746 8.87301 23.2873 7.94552 23.4093C7.01803 23.5314 6.15672 23.956 5.49516 24.6174C4.83359 25.2788 4.40873 26.14 4.28646 27.0675C4.16419 27.995 4.35134 28.9368 4.81889 29.7471C5.28644 30.5574 6.00827 31.1907 6.87244 31.549C7.73661 31.9072 8.69483 31.9704 9.59853 31.7286C10.5022 31.4868 11.3009 30.9535 11.8707 30.2116C12.4405 29.4697 12.7496 28.5605 12.75 27.625V15.6251L25.5 11.0734V11.0712Z" fill="white"/>
</svg>
