<svg width="24" height="24" viewBox="0 0 24 24" fill="none" xmlns="http://www.w3.org/2000/svg">
<path d="M10.2 3.6001C11.4544 3.59988 12.6829 3.95715 13.7416 4.63004C14.8002 5.30293 15.6452 6.26358 16.1775 7.39945C16.7098 8.53531 16.9073 9.79934 16.7471 11.0435C16.5868 12.2876 16.0752 13.4602 15.2724 14.4241L20.2248 19.3753C20.3311 19.4811 20.3939 19.6229 20.4009 19.7728C20.4078 19.9226 20.3584 20.0696 20.2623 20.1848C20.1662 20.3 20.0305 20.375 19.8818 20.3951C19.7332 20.4152 19.5824 20.3789 19.4592 20.2933L19.3752 20.2249L14.424 15.2725C13.6095 15.9506 12.6436 16.4226 11.6081 16.6485C10.5725 16.8743 9.49783 16.8475 8.47486 16.5703C7.45189 16.293 6.51074 15.7735 5.73101 15.0556C4.95128 14.3377 4.35591 13.4426 3.99525 12.446C3.63459 11.4493 3.51926 10.3805 3.659 9.32989C3.79874 8.27927 4.18946 7.27775 4.79809 6.41005C5.40672 5.54235 6.21537 4.83399 7.15564 4.34489C8.09592 3.85578 9.14015 3.60031 10.2 3.6001V3.6001ZM10.2 4.8001C8.76786 4.8001 7.39435 5.36902 6.38165 6.38172C5.36896 7.39442 4.80003 8.76793 4.80003 10.2001C4.80003 11.6323 5.36896 13.0058 6.38165 14.0185C7.39435 15.0312 8.76786 15.6001 10.2 15.6001C11.6322 15.6001 13.0057 15.0312 14.0184 14.0185C15.0311 13.0058 15.6 11.6323 15.6 10.2001C15.6 8.76793 15.0311 7.39442 14.0184 6.38172C13.0057 5.36902 11.6322 4.8001 10.2 4.8001Z" fill="white"/>
</svg>
