<svg width="32" height="32" viewBox="0 0 32 32" fill="none" xmlns="http://www.w3.org/2000/svg">
<rect width="32" height="32" rx="16" fill="#EF5DA8"/>
<path d="M11.7734 18.7969L12.9297 18.3906C13.6276 19.599 14.7109 20.2031 16.1797 20.2031C16.9922 20.2031 17.6536 20.0052 18.1641 19.6094C18.6745 19.2135 18.9297 18.6719 18.9297 17.9844C18.9297 17.6406 18.8568 17.3385 18.7109 17.0781C18.5651 16.8073 18.3307 16.5729 18.0078 16.375C17.6953 16.1771 17.4036 16.0208 17.1328 15.9062C16.862 15.7917 16.4922 15.6562 16.0234 15.5C15.6484 15.375 15.3828 15.2865 15.2266 15.2344C15.0703 15.1823 14.8203 15.0885 14.4766 14.9531C14.1432 14.8177 13.8932 14.6979 13.7266 14.5938C13.5703 14.4896 13.3724 14.349 13.1328 14.1719C12.8932 13.9844 12.7161 13.7969 12.6016 13.6094C12.4974 13.4219 12.3984 13.1979 12.3047 12.9375C12.2214 12.6667 12.1797 12.3802 12.1797 12.0781C12.1797 11.151 12.5339 10.4115 13.2422 9.85938C13.9505 9.29688 14.8984 9.01562 16.0859 9.01562C16.9922 9.01562 17.7786 9.22396 18.4453 9.64062C19.1224 10.0573 19.6068 10.5781 19.8984 11.2031L18.8359 11.5781C18.2214 10.5781 17.2943 10.0781 16.0547 10.0781C15.2422 10.0781 14.6068 10.2604 14.1484 10.625C13.6901 10.9896 13.4609 11.474 13.4609 12.0781C13.4609 12.349 13.5234 12.6042 13.6484 12.8438C13.7734 13.0729 13.9089 13.2604 14.0547 13.4062C14.2109 13.5417 14.4557 13.6927 14.7891 13.8594C15.1328 14.0156 15.3984 14.1302 15.5859 14.2031C15.7839 14.2656 16.1016 14.3698 16.5391 14.5156C16.6432 14.5469 16.7214 14.5729 16.7734 14.5938C17.2839 14.7604 17.7109 14.9219 18.0547 15.0781C18.3984 15.2344 18.7526 15.4427 19.1172 15.7031C19.4818 15.9635 19.7526 16.2812 19.9297 16.6562C20.1172 17.0208 20.2109 17.4479 20.2109 17.9375C20.2109 18.9896 19.8411 19.8125 19.1016 20.4062C18.3724 20.9896 17.388 21.2812 16.1484 21.2812C15.0859 21.2812 14.1849 21.0573 13.4453 20.6094C12.7057 20.1615 12.1484 19.5573 11.7734 18.7969Z" fill="white"/>
</svg>
