<svg width="35" height="36" viewBox="0 0 35 36" fill="none" xmlns="http://www.w3.org/2000/svg">
<path d="M27.8906 26.75H27.0703V15.1289C27.0703 10.3062 23.5054 6.3208 18.8672 5.65771V4.32812C18.8672 3.57275 18.2554 2.96094 17.5 2.96094C16.7446 2.96094 16.1328 3.57275 16.1328 4.32812V5.65771C11.4946 6.3208 7.92969 10.3062 7.92969 15.1289V26.75H7.10938C6.50439 26.75 6.01562 27.2388 6.01562 27.8438V28.9375C6.01562 29.0879 6.13867 29.2109 6.28906 29.2109H13.6719C13.6719 31.3232 15.3877 33.0391 17.5 33.0391C19.6123 33.0391 21.3281 31.3232 21.3281 29.2109H28.7109C28.8613 29.2109 28.9844 29.0879 28.9844 28.9375V27.8438C28.9844 27.2388 28.4956 26.75 27.8906 26.75ZM17.5 30.8516C16.5942 30.8516 15.8594 30.1167 15.8594 29.2109H19.1406C19.1406 30.1167 18.4058 30.8516 17.5 30.8516ZM10.3906 26.75V15.1289C10.3906 13.2285 11.1289 11.4443 12.4722 10.1011C13.8154 8.75781 15.5996 8.01953 17.5 8.01953C19.4004 8.01953 21.1846 8.75781 22.5278 10.1011C23.8711 11.4443 24.6094 13.2285 24.6094 15.1289V26.75H10.3906Z" fill="white"/>
</svg>
