<svg width="34" height="34" viewBox="0 0 34 34" fill="none" xmlns="http://www.w3.org/2000/svg">
<path d="M8.49999 8.50001C8.49999 7.74856 8.7985 7.02789 9.32985 6.49654C9.86121 5.96519 10.5819 5.66668 11.3333 5.66668C11.709 5.66668 12.0694 5.51742 12.3351 5.25174C12.6007 4.98607 12.75 4.62573 12.75 4.25001C12.75 3.87429 12.6007 3.51395 12.3351 3.24828C12.0694 2.9826 11.709 2.83334 11.3333 2.83334C9.83043 2.83334 8.38909 3.43037 7.32638 4.49307C6.26368 5.55578 5.66666 6.99712 5.66666 8.50001V12.75C5.66666 13.5015 5.36815 14.2221 4.83679 14.7535C4.30544 15.2848 3.58477 15.5833 2.83332 15.5833C2.4576 15.5833 2.09727 15.7326 1.83159 15.9983C1.56591 16.264 1.41666 16.6243 1.41666 17C1.41666 17.3757 1.56591 17.7361 1.83159 18.0017C2.09727 18.2674 2.4576 18.4167 2.83332 18.4167C3.58477 18.4167 4.30544 18.7152 4.83679 19.2465C5.36815 19.7779 5.66666 20.4986 5.66666 21.25V25.5C5.66666 27.0029 6.26368 28.4442 7.32638 29.5069C8.38909 30.5697 9.83043 31.1667 11.3333 31.1667C11.709 31.1667 12.0694 31.0174 12.3351 30.7517C12.6007 30.4861 12.75 30.1257 12.75 29.75C12.75 29.3743 12.6007 29.014 12.3351 28.7483C12.0694 28.4826 11.709 28.3333 11.3333 28.3333C10.5819 28.3333 9.86121 28.0348 9.32985 27.5035C8.7985 26.9721 8.49999 26.2515 8.49999 25.5V21.25C8.49544 20.4433 8.31868 19.6468 7.98153 18.9139C7.64438 18.1809 7.15461 17.5284 6.54499 17C7.15461 16.4716 7.64438 15.8191 7.98153 15.0862C8.31868 14.3532 8.49544 13.5568 8.49999 12.75V8.50001ZM31.1667 15.5833C30.4152 15.5833 29.6945 15.2848 29.1632 14.7535C28.6318 14.2221 28.3333 13.5015 28.3333 12.75V8.50001C28.3333 6.99712 27.7363 5.55578 26.6736 4.49307C25.6109 3.43037 24.1695 2.83334 22.6667 2.83334C22.2909 2.83334 21.9306 2.9826 21.6649 3.24828C21.3992 3.51395 21.25 3.87429 21.25 4.25001C21.25 4.62573 21.3992 4.98607 21.6649 5.25174C21.9306 5.51742 22.2909 5.66668 22.6667 5.66668C23.4181 5.66668 24.1388 5.96519 24.6701 6.49654C25.2015 7.02789 25.5 7.74856 25.5 8.50001V12.75C25.5045 13.5568 25.6813 14.3532 26.0185 15.0862C26.3556 15.8191 26.8454 16.4716 27.455 17C26.8454 17.5284 26.3556 18.1809 26.0185 18.9139C25.6813 19.6468 25.5045 20.4433 25.5 21.25V25.5C25.5 26.2515 25.2015 26.9721 24.6701 27.5035C24.1388 28.0348 23.4181 28.3333 22.6667 28.3333C22.2909 28.3333 21.9306 28.4826 21.6649 28.7483C21.3992 29.014 21.25 29.3743 21.25 29.75C21.25 30.1257 21.3992 30.4861 21.6649 30.7517C21.9306 31.0174 22.2909 31.1667 22.6667 31.1667C24.1695 31.1667 25.6109 30.5697 26.6736 29.5069C27.7363 28.4442 28.3333 27.0029 28.3333 25.5V21.25C28.3333 20.4986 28.6318 19.7779 29.1632 19.2465C29.6945 18.7152 30.4152 18.4167 31.1667 18.4167C31.5424 18.4167 31.9027 18.2674 32.1684 18.0017C32.4341 17.7361 32.5833 17.3757 32.5833 17C32.5833 16.6243 32.4341 16.264 32.1684 15.9983C31.9027 15.7326 31.5424 15.5833 31.1667 15.5833Z" fill="white"/>
</svg>
