<svg width="15" height="20" viewBox="0 0 15 20" fill="none" xmlns="http://www.w3.org/2000/svg">
<path d="M7.5 0C6.39493 0 5.33512 0.438987 4.55372 1.22039C3.77232 2.00179 3.33333 3.0616 3.33333 4.16667V10C3.33333 11.1051 3.77232 12.1649 4.55372 12.9463C5.33512 13.7277 6.39493 14.1667 7.5 14.1667C8.60507 14.1667 9.66488 13.7277 10.4463 12.9463C11.2277 12.1649 11.6667 11.1051 11.6667 10V4.16667C11.6667 3.0616 11.2277 2.00179 10.4463 1.22039C9.66488 0.438987 8.60507 0 7.5 0V0ZM0.833333 9.16667C1.05435 9.16667 1.26631 9.25446 1.42259 9.41074C1.57887 9.56702 1.66667 9.77899 1.66667 10C1.66667 11.5471 2.28125 13.0308 3.37521 14.1248C4.46917 15.2188 5.9529 15.8333 7.5 15.8333C9.0471 15.8333 10.5308 15.2188 11.6248 14.1248C12.7188 13.0308 13.3333 11.5471 13.3333 10C13.3333 9.77899 13.4211 9.56702 13.5774 9.41074C13.7337 9.25446 13.9457 9.16667 14.1667 9.16667C14.3877 9.16667 14.5996 9.25446 14.7559 9.41074C14.9122 9.56702 15 9.77899 15 10C15.0004 11.8451 14.3206 13.6255 13.0906 15.0009C11.8607 16.3763 10.167 17.25 8.33333 17.455V19.1667C8.33333 19.3877 8.24554 19.5996 8.08926 19.7559C7.93298 19.9122 7.72101 20 7.5 20C7.27899 20 7.06702 19.9122 6.91074 19.7559C6.75446 19.5996 6.66667 19.3877 6.66667 19.1667V17.455C4.83301 17.25 3.13927 16.3763 1.90935 15.0009C0.679429 13.6255 -0.000354131 11.8451 1.38401e-07 10C1.38401e-07 9.77899 0.0877977 9.56702 0.244078 9.41074C0.400358 9.25446 0.61232 9.16667 0.833333 9.16667Z" fill="white"/>
</svg>
