<svg width="27" height="25" viewBox="0 0 27 25" fill="none" xmlns="http://www.w3.org/2000/svg">
<path d="M23.5999 7.95002H16.3043L17.7642 3.57292C18.0268 2.78252 17.8942 1.90632 17.4067 1.23032C16.9192 0.554325 16.1288 0.150024 15.2955 0.150024H13.1999C12.8138 0.150024 12.4485 0.321624 12.2002 0.618024L6.09025 7.95002H2.79995C1.36605 7.95002 0.199951 9.11612 0.199951 10.55V22.25C0.199951 23.6839 1.36605 24.85 2.79995 24.85H20.099C20.628 24.8483 21.144 24.686 21.5787 24.3847C22.0135 24.0834 22.3466 23.6573 22.5339 23.1626L26.118 13.6063C26.1725 13.4604 26.2002 13.3058 26.1999 13.15V10.55C26.1999 9.11612 25.0338 7.95002 23.5999 7.95002ZM2.79995 10.55H5.39995V22.25H2.79995V10.55ZM23.5999 12.9147L20.099 22.25H7.99995V9.72062L13.8083 2.75002H15.2982L13.2675 8.83792C13.2016 9.03333 13.1832 9.24164 13.2139 9.44558C13.2446 9.64951 13.3234 9.8432 13.4439 10.0106C13.5644 10.178 13.723 10.3142 13.9067 10.408C14.0903 10.5018 14.2937 10.5505 14.4999 10.55H23.5999V12.9147Z" fill="white"/>
</svg>
