<svg width="34" height="34" viewBox="0 0 34 34" fill="none" xmlns="http://www.w3.org/2000/svg">
<g clip-path="url(#clip0_4_106)">
<path d="M7.8625 23.375L8.86125 20.0983H13.1197L14.1185 23.375H16.7981L12.5396 10.6271H9.59013L5.3125 23.375H7.8625ZM11.0564 13.0645L12.6161 18.2198H9.384L10.9438 13.0645H11.0564ZM21.1692 13.3365C18.9189 13.3365 17.4441 14.9621 17.4441 17.6779V19.1548C17.4441 21.8726 18.8998 23.4961 21.1416 23.4961C22.5802 23.4961 23.7384 22.7949 24.0465 21.7876H24.1676V23.375H26.5859V9.95563H24.1209V14.9706H24.0083C23.6258 13.9613 22.5632 13.3344 21.1692 13.3344V13.3365ZM21.9916 15.2979C23.2241 15.2979 24.1209 16.2329 24.1209 17.7161V18.9954C24.1209 20.6104 23.2794 21.5454 22.0299 21.5454C20.7591 21.5454 19.9644 20.5913 19.9644 18.8934V17.9308C19.9644 16.2414 20.7506 15.2958 21.9916 15.2958V15.2979Z" fill="white"/>
<path d="M29.75 6.375C30.3136 6.375 30.8541 6.59888 31.2526 6.9974C31.6511 7.39591 31.875 7.93641 31.875 8.5V25.5C31.875 26.0636 31.6511 26.6041 31.2526 27.0026C30.8541 27.4011 30.3136 27.625 29.75 27.625H4.25C3.68641 27.625 3.14591 27.4011 2.7474 27.0026C2.34888 26.6041 2.125 26.0636 2.125 25.5V8.5C2.125 7.93641 2.34888 7.39591 2.7474 6.9974C3.14591 6.59888 3.68641 6.375 4.25 6.375H29.75ZM4.25 4.25C3.12283 4.25 2.04183 4.69777 1.2448 5.4948C0.447767 6.29183 0 7.37283 0 8.5L0 25.5C0 26.6272 0.447767 27.7082 1.2448 28.5052C2.04183 29.3022 3.12283 29.75 4.25 29.75H29.75C30.8772 29.75 31.9582 29.3022 32.7552 28.5052C33.5522 27.7082 34 26.6272 34 25.5V8.5C34 7.37283 33.5522 6.29183 32.7552 5.4948C31.9582 4.69777 30.8772 4.25 29.75 4.25H4.25Z" fill="white"/>
</g>
<defs>
<clipPath id="clip0_4_106">
<rect width="34" height="34" fill="white"/>
</clipPath>
</defs>
</svg>
