<svg width="48" height="48" viewBox="0 0 48 48" fill="none" xmlns="http://www.w3.org/2000/svg">
<path fill-rule="evenodd" clip-rule="evenodd" d="M17 14.9999H32C32.7956 14.9999 33.5587 15.316 34.1213 15.8786C34.6839 16.4412 35 17.2043 35 17.9999V29.9999C35 30.7956 34.6839 31.5587 34.1213 32.1213C33.5587 32.6839 32.7956 32.9999 32 32.9999H17C16.2044 32.9999 15.4413 32.6839 14.8787 32.1213C14.3161 31.5587 14 30.7956 14 29.9999V17.9999C14 17.2043 14.3161 16.4412 14.8787 15.8786C15.4413 15.316 16.2044 14.9999 17 14.9999V14.9999Z" stroke="#DDDDDD" stroke-width="2.28571" stroke-linecap="round" stroke-linejoin="round"/>
<path fill-rule="evenodd" clip-rule="evenodd" d="M27.5002 23.9997H30.5002C30.8981 23.9997 31.2796 24.1578 31.5609 24.4391C31.8422 24.7204 32.0002 25.1019 32.0002 25.4997V28.4997C32.0002 28.8976 31.8422 29.2791 31.5609 29.5604C31.2796 29.8417 30.8981 29.9997 30.5002 29.9997H27.5002C27.1024 29.9997 26.7209 29.8417 26.4396 29.5604C26.1583 29.2791 26.0002 28.8976 26.0002 28.4997V25.4997C26.0002 25.1019 26.1583 24.7204 26.4396 24.4391C26.7209 24.1578 27.1024 23.9997 27.5002 23.9997V23.9997Z" fill="#DDDDDD" stroke="#DDDDDD" stroke-width="2.28571" stroke-linecap="round" stroke-linejoin="round"/>
</svg>
