<svg width="48" height="48" viewBox="0 0 48 48" fill="none" xmlns="http://www.w3.org/2000/svg">
<path d="M30.75 16C31.1768 16 31.5994 16.0841 31.9937 16.2474C32.388 16.4107 32.7463 16.6501 33.0481 16.9519C33.3499 17.2537 33.5893 17.612 33.7526 18.0063C33.9159 18.4006 34 18.8232 34 19.25V28.755C34 29.1818 33.9159 29.6044 33.7526 29.9987C33.5893 30.393 33.3499 30.7513 33.0481 31.0531C32.7463 31.3549 32.388 31.5943 31.9937 31.7576C31.5994 31.9209 31.1768 32.005 30.75 32.005H17.25C16.8232 32.005 16.4006 31.9209 16.0063 31.7576C15.612 31.5943 15.2537 31.3549 14.9519 31.0531C14.6501 30.7513 14.4107 30.393 14.2474 29.9987C14.0841 29.6044 14 29.1818 14 28.755V19.25C13.9999 18.4199 14.3176 17.6212 14.8877 17.0178C15.4578 16.4144 16.2372 16.052 17.066 16.005L17.25 16H30.75ZM22.622 20.599C20.213 19.225 17.5 20.854 17.5 24C17.5 27.143 20.215 28.775 22.62 27.407C22.7867 27.3057 22.9074 27.1435 22.9565 26.9547C23.0056 26.7659 22.9792 26.5655 22.8829 26.3958C22.7866 26.2262 22.6281 26.1007 22.4408 26.0461C22.2536 25.9914 22.0524 26.0118 21.88 26.103C20.483 26.896 19 26.005 19 24C19 21.994 20.48 21.104 21.878 21.901C22.0503 21.9941 22.2522 22.0161 22.4405 21.9624C22.6288 21.9086 22.7886 21.7833 22.8858 21.6133C22.9829 21.4433 23.0097 21.242 22.9604 21.0524C22.9112 20.8629 22.7897 20.7002 22.622 20.599V20.599ZM30.122 20.599C27.713 19.225 25 20.854 25 24C25 27.143 27.715 28.775 30.12 27.407C30.2867 27.3057 30.4074 27.1435 30.4565 26.9547C30.5056 26.7659 30.4792 26.5655 30.3829 26.3958C30.2866 26.2262 30.1281 26.1007 29.9408 26.0461C29.7536 25.9914 29.5524 26.0118 29.38 26.103C27.984 26.896 26.5 26.005 26.5 24C26.5 21.994 27.98 21.104 29.378 21.901C29.5503 21.9941 29.7522 22.0161 29.9405 21.9624C30.1288 21.9086 30.2886 21.7833 30.3858 21.6133C30.4829 21.4433 30.5097 21.242 30.4604 21.0524C30.4112 20.8629 30.2897 20.7002 30.122 20.599V20.599Z" fill="#DDDDDD"/>
</svg>
