<svg width="35" height="35" viewBox="0 0 35 35" fill="none" xmlns="http://www.w3.org/2000/svg">
<path fill-rule="evenodd" clip-rule="evenodd" d="M32.8125 4.375C32.8125 3.79484 32.582 3.23844 32.1718 2.8282C31.7616 2.41797 31.2052 2.1875 30.625 2.1875H4.375C3.79484 2.1875 3.23844 2.41797 2.8282 2.8282C2.41797 3.23844 2.1875 3.79484 2.1875 4.375V30.625C2.1875 31.2052 2.41797 31.7616 2.8282 32.1718C3.23844 32.582 3.79484 32.8125 4.375 32.8125H30.625C31.2052 32.8125 31.7616 32.582 32.1718 32.1718C32.582 31.7616 32.8125 31.2052 32.8125 30.625V4.375ZM0 4.375C0 3.21468 0.460936 2.10188 1.28141 1.28141C2.10188 0.460936 3.21468 0 4.375 0L30.625 0C31.7853 0 32.8981 0.460936 33.7186 1.28141C34.5391 2.10188 35 3.21468 35 4.375V30.625C35 31.7853 34.5391 32.8981 33.7186 33.7186C32.8981 34.5391 31.7853 35 30.625 35H4.375C3.21468 35 2.10188 34.5391 1.28141 33.7186C0.460936 32.8981 0 31.7853 0 30.625V4.375ZM9.84375 16.4062C9.55367 16.4062 9.27547 16.5215 9.07035 16.7266C8.86523 16.9317 8.75 17.2099 8.75 17.5C8.75 17.7901 8.86523 18.0683 9.07035 18.2734C9.27547 18.4785 9.55367 18.5938 9.84375 18.5938H22.5159L17.8194 23.2881C17.7177 23.3898 17.637 23.5105 17.582 23.6434C17.5269 23.7763 17.4986 23.9187 17.4986 24.0625C17.4986 24.2063 17.5269 24.3487 17.582 24.4816C17.637 24.6145 17.7177 24.7352 17.8194 24.8369C17.9211 24.9386 18.0418 25.0192 18.1747 25.0743C18.3075 25.1293 18.4499 25.1576 18.5938 25.1576C18.7376 25.1576 18.88 25.1293 19.0128 25.0743C19.1457 25.0192 19.2664 24.9386 19.3681 24.8369L25.9306 18.2744C26.0325 18.1728 26.1133 18.0521 26.1684 17.9192C26.2236 17.7863 26.252 17.6439 26.252 17.5C26.252 17.3561 26.2236 17.2137 26.1684 17.0808C26.1133 16.9479 26.0325 16.8272 25.9306 16.7256L19.3681 10.1631C19.2664 10.0614 19.1457 9.98077 19.0128 9.92573C18.88 9.87069 18.7376 9.84237 18.5938 9.84237C18.4499 9.84237 18.3075 9.87069 18.1747 9.92573C18.0418 9.98077 17.9211 10.0614 17.8194 10.1631C17.7177 10.2648 17.637 10.3855 17.582 10.5184C17.5269 10.6513 17.4986 10.7937 17.4986 10.9375C17.4986 11.0813 17.5269 11.2237 17.582 11.3566C17.637 11.4895 17.7177 11.6102 17.8194 11.7119L22.5159 16.4062H9.84375Z" fill="white"/>
</svg>
