<svg width="48" height="48" viewBox="0 0 48 48" fill="none" xmlns="http://www.w3.org/2000/svg">
<path d="M15.8182 33.6365C15.6012 33.6365 15.3931 33.5503 15.2396 33.3969C15.0862 33.2434 15 33.0353 15 32.8183V14.8181C15 14.6759 15.0371 14.5362 15.1076 14.4127C15.178 14.2892 15.2795 14.1862 15.4019 14.1139C15.5243 14.0415 15.6634 14.0023 15.8055 14.0001C15.9477 13.9979 16.088 14.0328 16.2126 14.1013L32.5764 23.1015C32.7047 23.1721 32.8117 23.2759 32.8862 23.4019C32.9607 23.528 33 23.6718 33 23.8182C33 23.9646 32.9607 24.1084 32.8862 24.2345C32.8117 24.3605 32.7047 24.4643 32.5764 24.5349L16.2126 33.5351C16.0918 33.6016 15.9561 33.6365 15.8182 33.6365Z" fill="#EBEBEB"/>
</svg>
