<svg width="32" height="32" viewBox="0 0 32 32" fill="none" xmlns="http://www.w3.org/2000/svg">
<path d="M26.1328 10.6H5.8672C5.76111 10.6 5.65937 10.5579 5.58436 10.4829C5.50934 10.4079 5.4672 10.3061 5.4672 10.2C5.4672 10.094 5.50934 9.99222 5.58436 9.91721C5.65937 9.84219 5.76111 9.80005 5.8672 9.80005H26.1328C26.2389 9.80005 26.3406 9.84219 26.4156 9.91721C26.4907 9.99222 26.5328 10.094 26.5328 10.2C26.5328 10.3061 26.4907 10.4079 26.4156 10.4829C26.3406 10.5579 26.2389 10.6 26.1328 10.6ZM26.1328 16.4H5.8672C5.76111 16.4 5.65937 16.3579 5.58436 16.2829C5.50934 16.2079 5.4672 16.1061 5.4672 16C5.4672 15.894 5.50934 15.7922 5.58436 15.7172C5.65937 15.6422 5.76111 15.6 5.8672 15.6H26.1328C26.2389 15.6 26.3406 15.6422 26.4156 15.7172C26.4907 15.7922 26.5328 15.894 26.5328 16C26.5328 16.1061 26.4907 16.2079 26.4156 16.2829C26.3406 16.3579 26.2389 16.4 26.1328 16.4ZM26.1328 22.2H5.8672C5.76111 22.2 5.65937 22.1579 5.58436 22.0829C5.50934 22.0079 5.4672 21.9061 5.4672 21.8C5.4672 21.694 5.50934 21.5922 5.58436 21.5172C5.65937 21.4422 5.76111 21.4 5.8672 21.4H26.1328C26.2389 21.4 26.3406 21.4422 26.4156 21.5172C26.4907 21.5922 26.5328 21.694 26.5328 21.8C26.5328 21.9061 26.4907 22.0079 26.4156 22.0829C26.3406 22.1579 26.2389 22.2 26.1328 22.2Z" fill="white"/>
</svg>
