<svg width="29" height="23" viewBox="0 0 29 23" fill="none" xmlns="http://www.w3.org/2000/svg">
<path d="M19.8944 11.5298L28.4441 4.14911C28.5419 4.0647 28.6185 3.96073 28.6683 3.84478C28.7182 3.72883 28.7401 3.60382 28.7324 3.47885C28.7247 3.35388 28.6877 3.23211 28.624 3.1224C28.5603 3.01269 28.4715 2.9178 28.3641 2.84466L26.3712 1.49814C25.8103 1.12328 25.136 0.930503 24.4495 0.94871C23.763 0.966918 23.1013 1.19513 22.5634 1.59913L12.6169 9.10601L9.71661 6.98523C10.104 5.90355 10.0509 4.72407 9.56759 3.67749C9.0843 2.63091 8.20563 1.79254 7.10346 1.32637C6.00129 0.8602 4.75491 0.799766 3.60812 1.15689C2.46134 1.51402 1.49666 2.26301 0.902776 3.25736C0.308896 4.2517 0.128546 5.41987 0.397004 6.53335C0.665462 7.64683 1.36341 8.62551 2.35433 9.27795C3.34525 9.9304 4.55785 10.2097 5.75492 10.0611C6.952 9.9126 8.04743 9.34695 8.82694 8.47482L11.1579 10.158L7.38568 13.0614C6.31678 12.5173 5.07174 12.3699 3.89407 12.6482C2.71639 12.9264 1.69078 13.6101 1.01782 14.5658C0.344862 15.5214 0.0729534 16.6801 0.255275 17.8153C0.437596 18.9505 1.06103 19.9805 2.00366 20.704C2.94628 21.4274 4.1403 21.7922 5.35219 21.727C6.56407 21.6618 7.70666 21.1713 8.5565 20.3514C9.40634 19.5316 9.90229 18.4413 9.94737 17.2939C9.99245 16.1464 9.58341 15.0243 8.80025 14.1471L23.6666 2.91199C23.9032 2.73511 24.194 2.63542 24.4955 2.62784C24.797 2.62025 25.093 2.70517 25.3392 2.86991L26.4335 3.6105L17.261 11.5382L26.4335 19.449L25.3392 20.1896C25.093 20.3543 24.797 20.4393 24.4955 20.4317C24.194 20.4241 23.9032 20.3244 23.6666 20.1475L14.939 13.5411L13.6134 14.6857L22.5634 21.4183C23.102 21.8243 23.7655 22.0537 24.4539 22.0719C25.1423 22.0901 25.8184 21.8962 26.3801 21.5193L28.373 20.1728C28.4804 20.0996 28.5692 20.0047 28.6329 19.895C28.6966 19.7853 28.7336 19.6635 28.7413 19.5386C28.749 19.4136 28.7271 19.2886 28.6772 19.1726C28.6273 19.0567 28.5508 18.9527 28.453 18.8683L19.8944 11.5298ZM5.11702 8.46641C4.50783 8.46807 3.91181 8.29871 3.40442 7.97977C2.89703 7.66082 2.5011 7.20663 2.26675 6.67471C2.0324 6.14279 1.97017 5.55704 2.08794 4.99165C2.20571 4.42625 2.49818 3.90662 2.92832 3.49854C3.35847 3.09047 3.90695 2.8123 4.50431 2.69926C5.10167 2.58623 5.72106 2.6434 6.28406 2.86354C6.84706 3.08368 7.32834 3.4569 7.66698 3.93593C8.00562 4.41496 8.18638 4.97827 8.18638 5.55454C8.18639 6.32536 7.86329 7.06473 7.28793 7.61057C6.71257 8.15641 5.93189 8.46418 5.11702 8.46641ZM5.11702 20.0129C4.50783 20.0145 3.91181 19.8452 3.40442 19.5262C2.89703 19.2073 2.5011 18.7531 2.26675 18.2212C2.0324 17.6892 1.97017 17.1035 2.08794 16.5381C2.20571 15.9727 2.49818 15.4531 2.92832 15.045C3.35847 14.6369 3.90695 14.3588 4.50431 14.2457C5.10167 14.1327 5.72106 14.1899 6.28406 14.41C6.84706 14.6301 7.32834 15.0034 7.66698 15.4824C8.00562 15.9614 8.18638 16.5247 8.18638 17.101C8.18639 17.8718 7.86329 18.6112 7.28793 19.157C6.71257 19.7029 5.93189 20.0106 5.11702 20.0129Z" fill="white"/>
</svg>
