<svg width="27" height="27" viewBox="0 0 27 27" fill="none" xmlns="http://www.w3.org/2000/svg">
<path d="M23.6 1.15002H6.30085C5.7719 1.15178 5.25593 1.31403 4.82117 1.61532C4.38641 1.91662 4.05332 2.34276 3.86595 2.83742L0.281853 12.3937C0.227434 12.5397 0.199693 12.6942 0.199953 12.85V15.45C0.199953 16.8839 1.36605 18.05 2.79995 18.05H10.0956L8.63695 22.4271C8.50691 22.818 8.47139 23.234 8.53331 23.6413C8.59523 24.0485 8.75282 24.4352 8.99315 24.7697C9.48195 25.4457 10.2698 25.85 11.1044 25.85H13.2C13.5861 25.85 13.9514 25.6784 14.1997 25.382L20.3097 18.05H23.6C25.0338 18.05 26.2 16.8839 26.2 15.45V3.75002C26.2 2.31612 25.0338 1.15002 23.6 1.15002ZM12.5903 23.25H11.1018L13.1324 17.1608C13.1974 16.9655 13.2151 16.7575 13.1841 16.554C13.1531 16.3505 13.0741 16.1572 12.9538 15.9902C12.8334 15.8231 12.6752 15.687 12.4919 15.5931C12.3087 15.4992 12.1058 15.4502 11.9 15.45H2.79995V13.0853L6.30085 3.75002H18.4V16.2794L12.5903 23.25ZM21 15.45V3.75002H23.6L23.6012 15.45H21Z" fill="white"/>
</svg>
