<svg width="35" height="35" viewBox="0 0 35 35" fill="none" xmlns="http://www.w3.org/2000/svg">
<path d="M17.4987 19.9999C18.7413 19.9999 19.7487 18.9926 19.7487 17.75C19.7487 16.5073 18.7413 15.5 17.4987 15.5C16.2561 15.5 15.2488 16.5073 15.2488 17.75C15.2488 18.9926 16.2561 19.9999 17.4987 19.9999Z" fill="white"/>
<path d="M6.24995 19.9999C7.49256 19.9999 8.4999 18.9926 8.4999 17.75C8.4999 16.5073 7.49256 15.5 6.24995 15.5C5.00734 15.5 4 16.5073 4 17.75C4 18.9926 5.00734 19.9999 6.24995 19.9999Z" fill="white"/>
<path d="M28.7502 19.9999C29.9928 19.9999 31.0001 18.9926 31.0001 17.75C31.0001 16.5073 29.9928 15.5 28.7502 15.5C27.5076 15.5 26.5002 16.5073 26.5002 17.75C26.5002 18.9926 27.5076 19.9999 28.7502 19.9999Z" fill="white"/>
</svg>
