<svg width="48" height="48" viewBox="0 0 48 48" fill="none" xmlns="http://www.w3.org/2000/svg">
<path d="M25.8762 34.6138H22.1245C21.8894 34.6139 21.6614 34.5336 21.4782 34.3862C21.2951 34.2389 21.1678 34.0333 21.1175 33.8037L20.698 31.8619C20.1384 31.6167 19.6077 31.3101 19.1159 30.9477L17.2225 31.5506C16.9984 31.6221 16.7566 31.6148 16.5372 31.5298C16.3178 31.4449 16.1341 31.2875 16.0166 31.0837L14.1366 27.836C14.0203 27.6321 13.9766 27.3947 14.0127 27.1627C14.0489 26.9307 14.1627 26.7179 14.3355 26.559L15.8042 25.2191C15.7375 24.6121 15.7375 23.9997 15.8042 23.3927L14.3355 22.0559C14.1624 21.8969 14.0485 21.6839 14.0123 21.4517C13.9762 21.2195 14.02 20.9819 14.1366 20.7778L16.0124 17.5281C16.13 17.3243 16.3137 17.1669 16.5331 17.082C16.7524 16.997 16.9942 16.9897 17.2184 17.0612L19.1117 17.6641C19.3632 17.4786 19.625 17.3054 19.8951 17.1488C20.1558 17.0024 20.4238 16.8694 20.698 16.7509L21.1185 14.8112C21.1686 14.5815 21.2956 14.3759 21.4786 14.2283C21.6615 14.0808 21.8894 14.0002 22.1245 14H25.8762C26.1112 14.0002 26.3391 14.0808 26.5221 14.2283C26.705 14.3759 26.8321 14.5815 26.8821 14.8112L27.3068 16.7519C27.8657 16.9986 28.3961 17.3051 28.8889 17.6662L30.7833 17.0632C31.0073 16.992 31.2489 16.9995 31.468 17.0844C31.6871 17.1693 31.8707 17.3266 31.9882 17.5301L33.864 20.7799C34.1032 21.1994 34.0207 21.7302 33.6651 22.0569L32.1964 23.3968C32.2632 24.0038 32.2632 24.6162 32.1964 25.2232L33.6651 26.5631C34.0207 26.8909 34.1032 27.4206 33.864 27.8401L31.9882 31.0899C31.8706 31.2937 31.6869 31.4511 31.4676 31.536C31.2482 31.6209 31.0064 31.6283 30.7823 31.5568L28.8889 30.9539C28.3974 31.316 27.8671 31.6223 27.3078 31.8671L26.8821 33.8037C26.8319 34.0332 26.7047 34.2386 26.5218 34.3859C26.3388 34.5332 26.1111 34.6137 25.8762 34.6138V34.6138ZM23.9962 20.1842C22.9028 20.1842 21.8541 20.6185 21.081 21.3917C20.3078 22.1649 19.8734 23.2135 19.8734 24.3069C19.8734 25.4004 20.3078 26.449 21.081 27.2222C21.8541 27.9953 22.9028 28.4297 23.9962 28.4297C25.0896 28.4297 26.1383 27.9953 26.9114 27.2222C27.6846 26.449 28.119 25.4004 28.119 24.3069C28.119 23.2135 27.6846 22.1649 26.9114 21.3917C26.1383 20.6185 25.0896 20.1842 23.9962 20.1842V20.1842Z" fill="#DDDDDD"/>
</svg>
